<svg xmlns="http://www.w3.org/2000/svg" width="150" height="150" fill="none"><path fill="#FF9932" fill-rule="evenodd" d="M122 127c0-7.7 6.3-14 14-14s14 6.3 14 14-6.3 14-14 14-14-6.3-14-14Z" clip-rule="evenodd"/><path fill="#0FB264" fill-rule="evenodd" d="M123.5 100.8 104.3 93c-1.5-.6-1.6-1.8-1-3.2 1.8-4.5 2.7-9.6 2.7-14.8 0-21.7-18.2-40-40-40S26 53.3 26 75c0 5 1.2 10.4 3.1 15.1.4.9.5 2 0 2.8-.4.6-1 .1-1.6.3L7.9 99.5c-.3.1-.6.1-.9.1-1.2 0-2.3-.8-2.7-1.9C1.4 90.2 0 82.7 0 75 0 38.8 29.6 9 66 9s66 29.5 66 65.7c0 8.6-1.5 16.8-4.6 24.5-.3.7-.9 1.3-1.7 1.6-.3.1-.7.2-1.1.2-.4 0-.8-.1-1.1-.2Z" clip-rule="evenodd"/><path fill="#FF9932" fill-rule="evenodd" d="M7.3 105.3c-1.1-2.1-2-4.5-2.9-6.8-.3-1-.4-1.8-.4-2.5 0-7.1 6-13 13.5-13 5.5 0 10.2 3.3 12.3 8.2.2.3.9 1.8 1.2 2.3 6.9 13.1 20.2 21.5 35 21.5 14.4 0 27.8-8.2 34.7-20.8.7-1.3 2.5-4.4 2.6-4.6 2.2-4.4 6.4-6.5 11.2-6.5 7.5 0 13.5 5.9 13.5 13.1 0 .9-.1 2.1-.6 3.2-.4 1.1-.8 2.3-1.3 3.4l-.1.2c-.3.7-.5 1.2-.8 1.7-11.3 22.4-34 36.3-59.1 36.3-24.9 0-47.4-13.7-58.8-35.7Z" clip-rule="evenodd"/></svg>