<svg xmlns="http://www.w3.org/2000/svg" viewBox="0 0 224.2 221"><path d="M129 33a77 77 0 0 0-67 16c-9 7-17 16-22 27-5 13-9 24-7 42a78 78 0 0 0 131 52c11-11 19-19 25-40 3-10 3-20 2-30l-2-10c-4-12-10-24-18-33a91 91 0 0 0-42-24z" fill="#d9e559"/><path d="M98 189c-18-3-35-13-47-27-5-6-5-9-1-11s5-4 5-8l2-6 2-6c0-3-1-4-8-6-6-2-9-4-9-6l-4-4-6-3c-1-3 2-20 5-28 3-7 7-16 9-17l1-2 5-7c4-5 5-5 7-5 2 1 3 0 5-1 2-2 9-6 13-7 2 0 5-3 8-6 5-6 5-6 13-7 14-3 28-1 41 3 5 2 6 2 3 3-2 2-3 4-1 4 1 0 3 0 4-2h5c2 2 0 3-7 4l-10 2-2 1c1-2-3-4-9-4-7-1-9 0-15 6-4 3-5 5-2 6v3c-1 2-7 6-6 4 0-2-3-6-5-5-1 1 0 5 1 7v5c0 1-1 2-3 2-3 1-3 1-3 5s0 4 3 5c3 0 3 0 0 0a4032 4032 0 0 1-12 12l-1 9c-1 6-1 6 2 11l4 3 8 1c8 0 13 1 13 5l2 7c2 3 2 5 2 9-1 8 4 24 7 25 4 1 9 0 11-3 3-3 6-9 6-11l3-5c3-3 3-4 3-10l-1-5 5-6c8-9 9-13 4-14-3 0-3 0 1-2 8-4 12-9 9-12-1-1 0-2 2-2 7 0 12 5 15 13l3 6c2 1 4 0 4-3s8-12 9-10v23c-6 44-49 75-93 67zm51-43v-7c-2-2-6 2-6 7-2 9 3 9 6 0zM93 60c0-2-3-1-4 1 0 1 1 2 2 1l2-2zm-7-11c1-1-1-3-3-2-1 1-2 2-1 3s3 1 4-1zm29-11c4-1 3-4-1-4s-5 2-4 3c0 2 2 2 5 1zm24 65-3-7 5 8-2-1zm12-11-2-1 5 2-3-1zm-42-10c-3-3-3-3-8-2h-6l3-3c5-5 6-5 11-2l5 1c0-1 1-1 3 1 2 3 3 3 4 1s1-2 3 0l4 2c3 0 5 2 4 4l-10 1c-9 0-9 0-13-3zm38-5-1-4c-1-3-1-3 1-1 2 3 3 5 2 6l-2-1zm-21-5 5-1 4 1-4 1-5-1zm-13-15 2-5 1-2 1 2v5c-3 2-5 2-4 0z" fill="#59b0d4"/><path d="M112 0A112 111 0 0 0 0 111a112 111 0 0 0 112 110 112 111 0 0 0 112-110A112 111 0 0 0 112 0zm-1 13a98 98 0 0 1 98 98 98 98 0 0 1-98 99 98 98 0 0 1-97-99 98 98 0 0 1 97-98z" fill="#e4774f"/></svg>