<?xml version="1.0" standalone="no"?><!DOCTYPE svg PUBLIC "-//W3C//DTD SVG 1.1//EN" "http://www.w3.org/Graphics/SVG/1.1/DTD/svg11.dtd"><svg t="1696777412536" class="icon" viewBox="0 0 1024 1024" version="1.1" xmlns="http://www.w3.org/2000/svg" p-id="47999" xmlns:xlink="http://www.w3.org/1999/xlink" width="200" height="200"><path d="M786.7 430.8c-2.1-8-6.4-14.7-13.1-19.8-20.3-15.8-48.4-8.3-59.1 16.3-7.2 16.6-15 33.1-24.9 48.4-6.7 10.4-14.4 20-24.1 27.8-15.2 12.6-28.9 13.4-45.4 2.7-7.2-4.5-13.9-10.4-20.3-16-11-9.9-21.4-20.3-33.9-28.6-20.3-13.4-36.1-11.8-53.4 5.1-8.6 8.3-15.5 17.6-22.4 27-8.6 11.5-16.6 23.2-26.7 33.4-12.3 12.3-26.5 15.8-42.8 10.2-11.5-3.7-21.1-10.2-29.7-18.2-14.4-13.6-25.1-29.9-34.2-47.3-1.3-2.7-2.9-5.6-4.3-8.3 9.1 42.2 23.8 81.5 57.5 110.6 3.5 2.9 7.2 5.3 11 7.5 23.5 13.4 45.7 11.8 66.8-5.3 4-3.2 7.8-7.2 11.8-10.7 8.3-7.5 15.8-16 24.9-22.4 17.9-12.6 33.9-11.2 49.7 3.7 9.6 9.4 17.4 20.3 25.9 30.7 11.2 13.4 23.5 25.4 39.6 33.1 21.4 10.2 38.8 7.2 56.1-8.8 11.2-10.7 19.8-23.5 27.5-36.6 4.8-8 9.4-16 15-25.7 0.8 19.2-0.5 36.1-3.2 52.9-6.1 39.8-16 78.8-38.2 113.3-50.8 78.6-122.9 116-216.2 103.7-74.8-9.9-130.7-51.3-163.8-118.7-38.7-78.6-43.8-161.1-19.2-245.3 23.8-81.2 71.9-145.4 141.9-191.6 46.8-30.7 95.9-29.7 143.5 0.3 20.6 12.8 39.3 28.6 55.9 46.5 2.4 2.4 4.8 4.8 7.7 6.4 15.5 9.9 35.5 6.9 47.8-6.7 12.3-13.9 12.3-33.9-0.5-49.7-20.3-25.1-42.8-47.8-67.6-68.4-20-16.6-40.6-32.3-65.2-41.7-4.3-1.6-8.8-2.9-13.4-4-31.8-7.5-59.1-3.5-67.9-1.6-0.8 0.3-1.6 0.3-2.1 0.5-22.4 5.3-42.5 16.6-61.2 30.7-55 40.9-99.7 91.1-133.6 150.5-39.3 68.9-60.9 143.2-64.1 222.9-2.1 50.2 1.6 100 16.8 148.1C279.7 828 425.1 913.8 572.1 880.9c111.4-24.9 186-93.9 217.5-204.5 23-81.2 18.7-163.8-2.9-245.6z m0 0" fill="#F4C21F" p-id="48000"></path></svg>