<?xml version="1.0" standalone="no"?><!DOCTYPE svg PUBLIC "-//W3C//DTD SVG 1.1//EN" "http://www.w3.org/Graphics/SVG/1.1/DTD/svg11.dtd"><svg t="1696777159660" class="icon" viewBox="0 0 1024 1024" version="1.1" xmlns="http://www.w3.org/2000/svg" p-id="33082" xmlns:xlink="http://www.w3.org/1999/xlink" width="200" height="200"><path d="M814.851981 425.51238c11.072151-10.295463 20.520318-16.548875 33.761874-15.957405 19.321006 0.863669 34.392229 15.290211 34.440325 34.782108 0.067538 27.441947 0.018419 54.883895 0.018419 82.226582-1.674126 0.674357-2.592029 1.332342-3.546772 1.385554-25.688004 1.457185-25.59693 1.444905-25.719727-24.043554-0.083911-17.600831-0.134053-35.219059-0.843203-52.802494-0.368389-9.092057-4.559843-16.434265-14.612783-17.718511-7.971539-1.019211-19.139881 8.610081-20.151929 18.224024-1.28527 12.204949-1.264804 24.56237-1.528816 36.856346-0.225127 10.571755-0.227174 21.16193 0.011256 31.733685 0.132006 5.94949-2.3229 8.010425-8.190526 8.002238-25.607163-0.040932-20.91122 0.517792-21.036063-19.750793-0.170892-27.855362 0.511652-55.730167-0.317224-83.560971-0.330527-11.168342 3.452628-14.085782 13.865771-13.301931C809.119431 412.203286 817.579086 410.606931 814.851981 425.51238z" p-id="33083"></path><path d="M242.883287 519.394396c-0.949626-9.344814-3.068889-18.612879-3.448535-27.960763-0.602726-14.803118-0.011256-29.651261-0.198521-44.476892-0.230243-18.304865-7.044426-31.345853-20.531575-34.264316-11.79972-2.551097-24.446736-3.317552-36.46749-2.193964-14.696694 1.373274-24.827405 10.745717-29.984858 24.79466-0.764408 2.082424-1.40909 5.058192-0.497326 6.755854 3.067866 5.715154 23.628093 5.348811 27.378503-0.202614 6.252388-9.253739 19.253468-11.68818 27.276172-4.189407 2.498909 2.33825 3.242851 7.517192 3.086285 11.32593-0.077771 1.898229-3.73813 4.570076-6.238062 5.282296-11.113083 3.17122-22.619115 5.071495-33.555166 8.714458-17.557853 5.849207-26.393061 23.95555-21.150674 42.839605 3.954047 14.248487 17.539433 26.555766 38.448607 22.357149 8.935492-1.796922 17.390031-5.992469 26.820802-9.371419 3.796458 7.911164 19.818332 13.598689 27.622049 8.607011C243.024503 526.397889 243.154463 522.080569 242.883287 519.394396zM199.329416 504.449039c-4.590542 1.917672-11.651341 2.55519-15.519431 0.273222-3.966327-2.340297-8.145501-9.583243-7.242947-13.544454 1.04991-4.612032 6.919583-9.206667 11.786417-11.584826 6.077403-2.969629 13.263045-3.677755 21.045273-5.631243C210.208162 486.757133 212.799169 498.822912 199.329416 504.449039z" p-id="33084"></path><path d="M282.424783 528.156949c1.726314-0.261966 3.558029-0.257873 5.284343 0 8.628501 1.29141 10.710925-2.632962 10.706831-10.837814-0.004093-20.744422 0.707103-41.5001 1.726314-62.222009 0.599656-12.254067 9.988472-22.219003 19.083599-21.599904 8.442259 0.57612 13.064524 8.282624 13.093177 22.105416 0.045025 20.830379-0.065491 41.664852 0.099261 62.495231 0.024559 2.975768 0.894368 8.373698 1.947348 8.5231 7.221457 1.010001 14.722277 1.719151 21.842427 0.621146 1.792829-0.277315 3.336995-7.401559 3.612264-11.47124 1.462302-21.678698 1.812272-43.453588 3.950977-65.053492 1.042747-10.543103 10.925818-18.921917 17.812655-17.100436 10.318999 2.724036 12.686925 10.884886 12.592781 20.544877-0.182148 19.066203-0.054235 38.138546-0.052189 57.204749 0 16.963313 0.002047 16.963313 17.367518 16.752512 1.060143-0.013303 2.124379-0.059352 3.179406-0.004093 6.842835 0.35611 9.164712-2.861158 8.962098-9.633385-0.81148-26.750194-0.915857-53.523924-1.892089-80.265931-0.562817-15.415054-14.546269-27.336547-29.944949-28.660703-15.045641-1.295503-25.058672 6.870464-33.336179 14.61483-7.737203-5.103218-14.067362-11.714786-21.62958-13.748091-15.262581-4.10652-28.495951 2.536771-39.910909 14.782652-0.481976-5.538122-0.784874-8.975401-1.127681-12.891586-7.968469 0-15.653484 0-24.65549 0-0.206707 3.783155-0.520862 6.877627-0.522908 9.970052-0.034792 31.427717 0.34997 62.859528-0.246616 94.273942C270.186065 526.13183 273.280537 529.53534 282.424783 528.156949z" p-id="33085"></path><path d="M604.839269 555.626526c-1.159404-3.137451-12.301139-4.528121-18.383659-3.563145-26.28766 4.166895-52.380893 9.56994-78.564176 14.405053-49.370332 9.118663-98.522701 8.472958-147.17058-4.432954-33.905137-8.99996-67.56161-18.934197-101.450374-28.000672-4.505608-1.203406-9.727529 0.256849-14.615853 0.485046-0.231267 1.398857-0.46151 2.79669-0.692777 4.198617 4.607939 3.596914 8.907863 7.71162 13.890331 10.680225 8.757437 5.211688 17.89145 9.797114 26.938482 14.5125 50.761003 26.468785 104.470144 40.609825 162.019747 38.374929 11.180621-0.435928 22.345893-1.337459 33.510141-2.137682 39.39107-2.80897 76.424447-14.247464 111.901379-31.070584C598.133557 566.271959 608.148635 564.568158 604.839269 555.626526z" p-id="33086"></path><path d="M642.412951 498.620298c-12.018707-0.032746-24.038438-0.008186-37.340369-0.008186 17.376728-21.894616 33.89695-41.50317 48.758396-62.29978 3.603054-5.043866 2.604309-14.090898 1.781573-21.065739-0.192381-1.62603-8.288764-3.185546-12.781069-3.284806-17.2877-0.378623-34.588704-0.152472-51.882544-0.152472-23.645489 0-23.653676 0-21.607067 23.7294 0.052189 0.595563 0.725523 1.137914 1.958604 2.951209 13.732742 0 28.333245 0 44.561826 0-14.976056 19.261654-27.82671 37.724108-42.778207 54.290379-8.722645 9.666131-8.175177 19.042667-6.808043 29.693217 19.940105-3.472071 39.122964-7.142663 58.419411-10.04987 12.742183-1.916649 24.807963-0.438997 33.781317 13.80949 0-5.228061 0.014326-8.548683-0.002047-11.872375C658.402079 497.080225 660.289051 498.67351 642.412951 498.620298z" p-id="33087"></path><path d="M629.087485 522.419283c-20.438454 1.593285-40.620058 6.818276-60.768917 11.168342-2.007723 0.434904-3.015677 5.498213-4.487189 8.40849 2.586913 1.245361 5.170756 3.530399 7.765855 3.542679 8.071823 0.051165 16.14774-0.766455 21.87108-1.105168 4.121869 0 5.888092-0.016373 7.652268 0.004093 14.811304 0.191358 16.776048 3.390207 10.471471 16.980709-2.957349 6.368022-6.248295 12.621433-8.601895 19.208442-1.035584 2.892881-0.100284 6.489795-0.061398 9.765392 3.228525-0.384762 6.812136-0.024559 9.59143-1.348715 3.37895-1.610681 7.024983-4.065587 8.906839-7.158013 7.5878-12.480217 15.539897-24.907223 21.433105-38.203014C648.133221 531.786609 642.108007 521.405188 629.087485 522.419283z" p-id="33088"></path><path d="M459.694832 464.889123c-14.291466 5.50333-20.345333 19.901219-17.791166 37.957421 1.86446 13.201647 12.176296 22.780797 25.779078 25.441388 14.902378 2.9113 27.269009-2.222617 38.748435-10.948331 5.697758 11.851909 12.600967 13.772651 29.47423 9.517752-0.946556-15.243139-2.164288-30.157797-2.705616-45.103154-0.448207-12.337978-0.051165-24.702562-0.101307-37.05896-0.075725-18.131926-7.037263-29.270592-24.811032-32.751873-12.307279-2.409881-25.971459-2.119263-38.173338 0.68459-7.804741 1.793852-15.535804 9.257833-20.668697 16.139553-9.109454 12.214158-7.172339 15.123412 8.164944 17.347052 3.774969 0.548491 7.551985 1.089819 11.213367 1.618867 8.074893-13.710229 15.485662-17.683719 26.929272-12.331838 4.192477 1.961674 6.402814 8.154711 9.517752 12.412679-3.108798 2.244106-5.910605 5.446025-9.382676 6.555286C483.921557 458.193644 471.373802 460.391702 459.694832 464.889123zM492.47331 504.945341c-9.251693 4.44728-17.916009 1.640357-20.903034-6.77632-3.37895-9.524915 0.22922-16.009593 10.702738-18.940337 7.049542-1.974977 14.15332-3.748363 22.119743-5.843067C506.571371 491.339489 503.24154 499.767422 492.47331 504.945341z" p-id="33089"></path><path d="M769.28527 454.216061c-3.078099-20.760795-26.969181-47.213207-48.765559-44.743974-21.883359 0.11154-36.958676 7.61236-47.520198 24.264588-12.699205 20.018899-12.956054 41.474517-5.418395 62.536163 7.547891 21.087229 24.77624 31.858528 46.901099 33.075237 18.638462 1.023304 33.848855-6.262621 44.918959-22.017412C770.902091 490.9711 772.122892 473.347756 769.28527 454.216061zM737.808434 487.340417c-1.703801 10.64134-10.791766 16.280769-21.647999 15.874517-10.211552-0.384762-17.149554-5.683431-20.070064-15.510221-1.76827-5.942327-2.801807-12.103642-4.176104-18.205604 1.256618-5.996562 1.937115-11.925587 3.786225-17.464732 3.049446-9.115593 14.432682-17.431986 22.1003-16.95308 8.522077 0.528025 19.673022 9.042939 20.641068 18.348867C739.605356 464.619994 739.582844 476.259056 737.808434 487.340417z" p-id="33090"></path></svg>