<?xml version="1.0" standalone="no"?><!DOCTYPE svg PUBLIC "-//W3C//DTD SVG 1.1//EN" "http://www.w3.org/Graphics/SVG/1.1/DTD/svg11.dtd"><svg t="1696777084363" class="icon" viewBox="0 0 1024 1024" version="1.1" xmlns="http://www.w3.org/2000/svg" p-id="28793" xmlns:xlink="http://www.w3.org/1999/xlink" width="200" height="200"><path d="M620.25757 562.373655s1.535287 27.145672 109.122749 11.270809c0 0-12.93795 295.327719 8.070188 391.778033 0 0-8.070189 27.277526-33.693218-67.505647-25.610386-94.768723-32.145288-117.178488-43.284243-122.046249-11.137149-4.867761-62.637885 28.942861-88.24827 83.512363-25.60858 54.555053-40.21367 120.379109-40.213671 120.379109s-17.025425 12.93795-17.408343-8.068382c-0.263708-20.874478 14.207722-129.999033 14.207723-129.999034s-29.580456 76.462689-34.699283 116.425294c-5.131469 40.083622-15.502782 4.101924-13.452722-8.202042 2.050059-12.287711 13.954852-67.241938-0.265514-100.021209 0 0-13.05716-6.020129-98.473279 122.694682 0 0-7.183335 19.209144-15.504588 11.138955-8.202043-8.068382 1.033158-20.3579 9.22075-40.98312 8.200236-20.608964 44.315595-105.020824 55.584598-115.393942 0 0-33.929833 6.151983-52.517637-3.068767-18.571549-9.218944-41.232378-26.775397-26.759141-94.783173 5.767259-27.277526 6.401242-0.384725 4.100118 19.604706-4.735907 42.252892 12.289517 66.327991 44.568465 59.289154 33.942476-7.300739 51.231609-34.446411 51.231609-34.446411 56.131882-70.51842 112.272796-141.053097 168.413709-211.575129zM939.673032 287.790366C581.71104 352.080941 464.267038 308.664844 464.267038 308.664844s-6.150177-8.070189-14.220366-11.270809c-8.070189-3.202427-17.793068 25.610386-9.735522 30.478147 8.070189 4.867761 23.822228-3.200621 23.822228-3.200621 102.587847 43.414291 464.268844-16.006717 464.268844-16.006717-29.074715 49.685485-146.135798 178.149232-168.677416 199.02371-22.539813 20.874478-78.630152 30.610001-126.796607 18.441501-48.152005-12.170307-248.709195-82.600222-285.722244-98.619583-37.013049-16.138571-142.801517-77.096672-152.406992-93.101582-9.603669-16.138571-19.339192-14.47143-19.339192-14.47143 16.140377 28.942861 16.006717 115.643201-51.365269 141.268036C56.736966 486.944124 0 445.182523 0 445.182523l85.681633-208.746589c3.198815-41.763406 20.742624-40.215476 30.478147-41.763407 9.735523-1.535287 43.426935 12.93795 70.706267 32.145288 27.277526 19.340998 25.60858 8.070189 25.608579 8.070189s282.521623-126.664752 489.615523-142.803323c207.104736-16.006717 273.062452 18.705209 273.062452 18.705208-74.409017-4.233778-133.844475 27.277526-126.926654 48.668584 4.483037 13.573739 26.257012 15.621992 60.968938 16.006717 74.914758 1.018708 110.777246-35.345909 110.777246-35.345909 25.740434 44.949578-80.299099 147.671085-80.299099 147.671085zM478.223696 167.909774c0.648433-23.57297-29.842358-18.06942-35.596973-3.849054-8.335703 20.623414-8.070189 54.051117 11.904792 51.749994 18.705209-2.181913 22.805327-17.937565 23.692181-47.90094z" fill="#d81e06" p-id="28794"></path></svg>