<?xml version="1.0" standalone="no"?><!DOCTYPE svg PUBLIC "-//W3C//DTD SVG 1.1//EN" "http://www.w3.org/Graphics/SVG/1.1/DTD/svg11.dtd"><svg t="1696776628248" class="icon" viewBox="0 0 1024 1024" version="1.1" xmlns="http://www.w3.org/2000/svg" p-id="4281" xmlns:xlink="http://www.w3.org/1999/xlink" width="200" height="200"><path d="M182.044 3.982h659.912c98.417 0 178.062 79.645 178.062 178.062v659.912c0 98.417-79.645 178.062-178.062 178.062H182.044c-98.417 0-178.062-79.645-178.062-178.062V182.044c0-98.417 79.645-178.062 178.062-178.062z" fill="#FFFFFF" p-id="4282"></path><path d="M841.956 1024H182.044C81.351 1024 0 942.08 0 841.956V182.044C0 81.351 81.351 0 182.044 0h659.912C942.649 0 1024 81.351 1024 182.044v659.912C1024 942.08 942.649 1024 841.956 1024zM182.044 7.964c-96.142 0-174.08 77.938-174.08 174.08v659.912c0 96.142 77.938 174.648 174.65 174.648h659.91c96.143 0 174.08-77.937 174.65-174.648V182.044c0-96.142-77.938-174.08-174.65-174.648l-660.48 0.568z" fill="#DBDCDC" p-id="4283"></path><path d="M208.782 291.84l65.422-97.849 27.876 35.271 39.253-64.284 61.44 114.915V156.444h-261.12v172.943h261.12V291.84h-193.99z m-36.978-100.124c0-9.103 5.69-17.067 13.654-21.05s18.204-1.706 24.462 5.12c6.258 6.258 8.533 15.93 5.12 24.463s-11.947 13.653-21.049 13.653c-12.515 0-22.187-9.67-22.187-22.186z m515.983-35.272h195.129v28.445h-195.13v-28.445z m0 54.614h195.129v28.444h-195.13v-28.444z m0-108.658h195.129v28.444h-195.13V102.4z m-253.725 54.044H655.36v28.445H434.062v-28.445z m0 54.614H655.36v28.444H434.062v-28.444z m0-108.658H655.36v28.444H434.062V102.4zM141.084 838.542H655.36v28.445H141.084v-28.445z m0 54.614H655.36V921.6H141.084v-28.444z m0-108.658H655.36v28.444H141.084v-28.444z m546.703 54.044h195.129v28.445h-195.13v-28.445z m0 54.614h195.129V921.6h-195.13v-28.444z m0-108.658h195.129v28.444h-195.13v-28.444zM158.15 102.4h4.551c1.138 0 2.845 0.569 3.982 1.707 1.138 0.569 1.707 1.706 2.276 2.844 0.569 1.138 1.138 2.845 0.569 3.982 0 1.707-0.569 3.414-1.138 4.551-1.138 1.138-2.275 2.276-3.982 2.845 2.275 0.569 3.982 1.707 5.12 3.413 2.275 3.414 2.844 7.396 1.138 10.81-0.57 1.137-1.707 2.275-2.845 3.412-1.138 1.138-2.844 1.707-3.982 1.707-1.707 0.569-2.844 0.569-4.551 0.569h-18.205V102.4h17.067z m-1.138 14.222c1.138 0 2.276-0.569 3.414-1.138 1.137-0.568 1.706-2.275 1.137-3.413v-2.275c-0.568-0.57-0.568-1.138-1.137-1.138-0.57-0.57-1.138-0.57-1.707-0.57h-9.671v8.534h7.964z m0 15.93h2.276c0.569 0 1.138-0.57 1.707-0.57 0.568-0.569 1.137-1.138 1.137-1.706 0.57-0.57 0.57-1.707 0.57-2.276 0-1.707-0.57-2.844-1.707-3.982-1.138-1.138-2.845-1.138-3.983-1.138h-8.533v10.24l8.533-0.569z m27.307 13.084c-1.707 1.137-3.982 1.706-5.689 1.137h-4.551v-6.257h3.982c0.57 0 1.707-0.57 2.276-1.138 0.569-0.57 0.569-1.138 0.569-2.276v-1.706l-9.103-24.463h7.965l5.689 18.205 5.12-17.636h7.395l-10.809 29.582c-0.568 1.707-1.137 3.414-2.844 4.552z m36.409-34.134l-3.413 4.551h-5.12v13.654c0 0.569 0 1.706 0.568 2.275 0.57 0.57 1.707 1.138 2.276 0.57h2.276v5.688h-7.396c-1.138 0-1.707-0.569-2.844-1.138-0.57-0.569-1.707-1.138-1.707-1.706-0.569-1.138-0.569-2.276-0.569-3.414v-15.929h-4.551v-4.55h4.551v-3.983l7.396-3.413v7.395h8.533z m46.08-9.102c2.275 0 4.551 0.569 6.258 1.138 1.706 0.569 3.982 1.706 5.12 3.413 1.706 1.707 2.844 3.413 3.413 5.689 1.138 2.276 1.138 5.12 1.138 7.964 0 2.276-0.57 5.12-1.138 7.396s-1.707 3.982-2.844 5.689c-1.138 1.707-2.845 2.844-5.12 3.982-2.276 1.138-4.552 1.707-7.396 1.138h-15.929V102.4h16.498z m0 29.582h3.413c1.138-0.569 2.276-1.138 2.845-1.706 1.137-1.138 1.706-2.276 2.275-3.414 0.57-1.706 0.57-3.413 0.57-5.12 0-1.706 0-3.413-0.57-5.12 0-1.138-1.138-2.844-1.706-3.982-0.57-1.138-1.707-1.707-3.414-2.276-1.706-0.568-3.413-1.137-5.12-0.568h-5.689v22.755l7.396-0.569zM364.658 128c-0.57 2.844-2.845 4.551-5.69 5.12-5.688 0-6.257-7.396-6.257-7.396v-1.706s0-7.396 6.258-7.396c2.844 0 5.12 2.276 5.689 5.12h6.826c-1.137-5.689-6.257-10.24-12.515-10.24-6.827 0-12.516 5.12-13.085 11.947v3.982c0.57 6.827 6.258 11.947 13.085 11.947 6.258 0 11.378-3.982 12.515-10.24L364.658 128z m32.426-1.707h3.414v-3.413c0-6.827-5.69-12.516-13.085-12.516-6.826 0-12.515 5.12-13.084 11.947v3.982c0.569 6.827 6.258 11.947 13.084 11.947 5.69 0 10.81-3.413 12.516-8.533h-7.396c-1.137 1.706-2.844 3.413-5.12 3.413-4.55 0-5.689-4.551-5.689-6.827h15.36z m-9.67-9.67c3.982 0 5.12 3.413 5.688 5.688h-10.809c0.57-2.844 1.707-5.689 5.12-5.689z m-143.93 9.67h3.414v-3.413c0-6.827-5.69-12.516-13.085-12.516-6.826 0-12.515 5.12-12.515 11.947v3.982c0.569 6.827 6.258 11.947 12.515 11.947 5.69 0 10.81-3.413 11.947-8.533h-7.396c-0.568 2.275-2.844 3.413-5.12 3.413-4.55 0-5.688-4.551-5.688-6.827h15.928z m-9.67-9.67c2.844 0 5.12 2.844 5.688 5.688h-10.809c0.57-2.844 2.276-5.689 5.12-5.689z m79.075-4.552h-7.965c-1.706-0.569-3.413-1.138-5.688-1.138-6.827 0-12.516 5.12-12.516 11.947v3.982c0.569 6.827 5.689 11.947 12.516 11.947 2.275 0 4.55-0.569 6.826-1.707l6.258 1.707V112.07z m-13.085 21.049c-5.688 0-5.688-7.396-5.688-7.396v-1.706s0-7.396 5.688-7.396 5.69 7.396 5.69 7.396v1.706c0.568 0 0 7.396-5.69 7.396z m42.098-14.222c-0.569-4.551-3.982-7.965-8.533-7.965-3.413 0-6.258 1.138-8.533 3.414l-7.396-2.276v26.738h7.396v-15.36c0-7.396 6.257-6.827 6.257-6.827 4.551 0 3.983 6.258 3.983 6.258v15.929h7.395V122.88c-0.569-2.276-0.569-3.982-0.569-3.982z" fill="#DBDCDC" p-id="4284"></path><path d="M0 220.16v621.796c0 5.12 0 10.808 0.569 15.928L1024 799.858V182.044c0-5.12 0-10.808-0.569-15.928L0 220.16z" fill="#E62318" p-id="4285"></path><path d="M915.342 577.991v-48.355l-153.6 8.533v-24.462l-73.955 3.982v24.462l-153.6 8.533v48.356l153.6-8.533v106.95l73.955-3.981V586.524l153.6-8.533z" fill="#FFFFFF" p-id="4286"></path><path d="M534.187 488.676v48.355l52.906-2.844 135.965-67.13 138.809 51.2 53.475-2.844v-48.355l-35.27 2.275-91.592-33.564 121.742-59.733V291.27l-73.955 3.982-170.667 9.671-59.164-27.875-75.663 119.467 62.578 22.755 40.391-63.715 201.956-11.378v11.946l-112.64 55.183-87.61-32.427-29.581 44.942 51.769 19.342-88.747 43.805-34.702 1.707zM875.52 594.489l-73.956 3.982 54.045 89.885 73.955-3.983-54.044-89.884z m-340.764 112.64l73.955-3.982 49.493-95.574-73.955 3.983-49.493 95.573zM358.969 597.902l58.595 114.916 81.92-3.982L440.89 593.92l-81.92 3.982z m-76.8-83.626l-59.733-75.663-81.352 4.551 59.734 75.094 81.35-3.982z m0-94.436l-59.733-75.093-81.352 4.55 59.734 75.663 81.35-5.12z" fill="#FFFFFF" p-id="4287"></path><path d="M352.711 584.818l136.533-7.965v-48.355l-91.022 5.12V320.284l-73.955 3.983V537.6l-216.178 12.516v48.355l150.187-8.533-66.56 87.609-81.352 5.12v48.355l137.103-7.964 105.244-138.24z" fill="#FFFFFF" p-id="4288"></path></svg>