<?xml version="1.0" standalone="no"?><!DOCTYPE svg PUBLIC "-//W3C//DTD SVG 1.1//EN" "http://www.w3.org/Graphics/SVG/1.1/DTD/svg11.dtd"><svg t="1696776986924" class="icon" viewBox="0 0 1024 1024" version="1.1" xmlns="http://www.w3.org/2000/svg" p-id="22658" xmlns:xlink="http://www.w3.org/1999/xlink" width="200" height="200"><path d="M931.7 434.7h3.4c5.5 0 11-0.1 16.5 0 4.6 0.1 6.4 3.5 5.9 6.8-2.3 15.7-4.5 31.5-6.7 47.2-2 14.1-3.8 28.1-5.8 42.2-1.4 10.1-3 20.2-4.5 30.2-0.6 4-4.1 7.1-8.1 7.3H728.1c-4.7 0-7-1.6-7.1-5.2-0.1-1.3 0.2-2.6 0.4-3.9 1.5-11.2 3.1-22.3 4.7-33.5 1.7-12.2 3.6-24.4 5.4-36.7 1.6-11.2 3.1-22.3 4.7-33.5 0.4-2.8 0.3-2.8-2.5-2.8-2.2 0-4.5 0-6.7-0.1-2.5 0-4.3-1.1-5.3-3.4s-0.3-4.4 1.3-6.2l21.6-24.3c10.2-11.6 20.4-23.2 30.7-34.9 2-2.3 4.1-4.6 6.1-6.9 1.9-2.1 4.2-3.1 6.9-3.1 11.5 0 22.9 0.1 34.4 0 2.4 0 4.2 0.8 5.2 3 1.1 2.4 0.3 4.5-1.3 6.4-0.8 0.9-2.4 1.7-2 2.8 0.4 1 2.1 0.4 3.2 0.4h92.6c5.1 0 9.8 1.2 14.2 4 10.1 6.4 13.5 21 7.1 31.3-2.5 4-6 7.2-9 10.8-0.4 0.6-1 1-1 2.1z m-100.7-0.1s0 0.1 0 0h47.8c0.9 0 1.6 0 2.2-0.8 4.4-5.1 8.9-10.2 13.4-15.2 0.6-0.7 1.1-1.5 0.7-2.5-0.4-1.1-1.3-1.1-2.3-1.1h-91.4c-2 0-3.6 0.7-4.9 2.2-4.5 5.1-8.9 10.2-13.4 15.2-0.5 0.6-1.3 1.1-0.9 1.9 0.3 0.6 1.3 0.3 1.9 0.3H831z m48.2 105.3h25.1c1.8 0 3-0.3 2.8-2.5-0.1-1.2 0.5-2.4 0.6-3.6 0.2-2.7 0.9-5.3 0.4-8.1-1.1-6-6-10.4-12.2-10.4-13 0-26 0-39-0.1-1.8 0-2.3 0.8-2.5 2.3-0.9 6.7-1.7 13.3-2.8 19.9-0.3 2.1 0.3 2.5 2.2 2.5h25.4z m-91.3 0h24.6c1.1 0 2.3 0.2 2.4-1.5 0.2-3.8 1.3-7.4 1.2-11.3-0.2-6.3-5.6-11.8-11.9-11.8-12.6-0.1-25.2 0-37.8-0.1-1.5 0-2.1 0.5-2.3 1.8-0.9 6.8-1.9 13.6-2.8 20.4-0.2 1.7 0.1 2.5 2.1 2.4 8.1 0.1 16.3 0.1 24.5 0.1z m98.4-53.2c0 0.1 0 0.1 0 0 8.8 0.1 17.6 0.1 26.4 0.1 1.1 0 1.6-0.3 1.7-1.6 0.2-2.8 0.8-5.5 1.1-8.3 0.9-7.1-4.9-13.7-12-13.7-13.1-0.1-26.3 0-39.4-0.1-1.6 0-2.1 0.5-2.3 2-0.9 6.7-1.8 13.5-2.8 20.2-0.2 1.4 0.4 1.3 1.3 1.3 8.7 0.1 17.3 0.1 26 0.1z m-91.3 0.1h25c1.5 0 2.5-0.4 2.4-2.2-0.1-1.8 0.3-3.5 0.7-5.3 1.9-9.1-4.6-16.4-13.2-16.2-11 0.3-22 0.1-32.9 0.1-1.7 0-3.7-0.5-5 0.3-1.3 0.8-0.6 3-0.9 4.6-0.9 5.6-1.7 11.3-2.5 16.9-0.1 1-0.3 1.7 1.3 1.7 8.4 0.1 16.7 0.1 25.1 0.1z" fill="#FE7A02" p-id="22659"></path><path d="M393.4 447c-1.2 0.7-0.9 1.6-0.5 2.8 3.5 9 6 18.3 7.6 27.8 1.8 11.1 1.8 22.1 0.9 33.3-1 12.8-4.1 25-8.8 37-10.1 25.9-26.6 47.2-47.8 65-17.1 14.3-36.1 25.6-56.8 34-2.2 0.9-2.9 1.9-2.8 4.3 1.3 18.3-2.8 35.4-12.1 51.2-4 6.7-8.7 12.7-14.3 18.2-1.6 1.6-3.3 2.5-5.6 1.7s-3.4-2.4-3.8-4.8c-2-13.9-6.7-26.8-14.7-38.5-9.2-13.3-21.1-23.3-35.7-30.1-10.2-4.8-21-7.5-32.3-8.1-0.6 0-1.2-0.1-1.8-0.3-1.9-0.4-3-1.5-3.1-3.5-0.1-2 0.9-3.2 2.7-3.8 5.2-1.6 10.4-2.7 15.7-3.6 3.6-0.6 7.2-1.1 11-2-0.9-0.4-1.9-0.8-2.8-1.2-21-9.7-37.5-24.1-47.4-45.3-5.9-12.7-7.9-25.9-2.6-39.4 0-0.1 0-0.3-0.1-0.5-5.3-0.4-10.6 0-15.9 0.3-10.5 0.7-20.8 2.4-30.8 6-4.1 1.5-7.9 3.4-11.5 5.9-9.5 6.7-10.7 15.4-3.4 24.6 5 6.3 11.6 10.7 18.5 14.5 13.7 7.6 28.5 12.4 43.7 15.8l2.7 0.6c-1.3 1.7-2.7 0.4-3.9 0.2-14.6-1.9-28.8-5.1-42.3-11.3-8.4-3.8-16.3-8.5-22.7-15.4-11.2-12.2-9.5-26.3 4.4-35.6 8.7-5.8 18.5-8.7 28.6-10.6 11.5-2.1 23-2.7 34.6-2 0.8 0.1 1.6 0.2 2.2-0.7 4-5.8 9.3-10 16-13.7-2.7-0.3-4.8-0.5-6.9-0.7-18.1-1.9-35.1-7.3-51-16.2-3.3-1.8-4.3-4.3-2.8-7.7 15.8-36.5 36.7-69.6 65.6-97.3 8.3-7.9 17.5-14.7 26.9-21.2 5.4-3.7 11.8-5.3 17.7-7.9 18-8 37.1-11.6 56.8-10.8 28.4 1.2 54 10.3 76.2 28.4 0.4 0.3 0.8 0.8 1.4 0.7 0.1 0.2 0.2 0.3 0.3 0.5 0.3 0.3 0.6 0.7 0.9 1 4.8 4.4 10 8.3 14.5 13 0.6 0.6 1.6 1 1.5 1.8-39.1-29.8-82.2-41.4-130.7-29.8 20 10.2 26.7 31.8 20.7 49-6 17.6-23.1 28.6-42 26.7-9-0.9-16.8-4.6-23.3-10.9-9.5-9.2-13.2-20.5-11.9-34.3-3.3 3.2-6.1 5.9-8.7 8.6-22.5 23.6-39.5 50.8-53.3 80.1-1 2.2-0.5 2.9 1.4 3.9 21.4 10.2 43.9 14.2 67.5 11.7 16.2-1.7 31.6-6.4 45.9-14.2 25.3-13.9 43.6-34.1 55-60.7 1.1-2.5 2.6-4.4 5.7-4.3 2.7 0.1 4.1 1.4 5.3 4.6 4.4 11.9 5.8 24.2 4 36.7-3.1 21.9-13.7 39.4-31.5 52.6-5.4 4-11.3 7.1-17.6 9.6 0.2 0.3 0.3 0.6 0.5 0.7 5 3.8 9.6 8 13.8 12.7 0.7 0.8 1.2 0.7 1.9 0.1 1.7-1.5 3.4-2.9 5.2-4.3 0.7-0.6 1.2-1.6 2.9-1.5-6.7 9.7-14.9 17.1-24.7 22.8-9.8 5.7-20.4 8.8-32.1 10.3 19.8 15.4 41.2 20.1 64.6 13.1 23.3-6.9 38.7-22.9 47.9-45.8 0 1.2 0.1 1.7 0 2.1-1.6 9.3-5 18-10.3 25.8-9 13.2-21.1 22.4-36.3 27.5-1 0.3-1.9 0.6-2.2 2-2.6 12.8-10.1 22.2-21.2 28.7-1.9 1.1-2.9 2.3-3.5 4.5-1.3 4.9-1.4 4.8-6.5 4-3.4-0.6-6.8-1.9-10.3-1.4-6.2 0.8-12.3 1-18.5 0.4-3.5-0.3-6.9-1.4-10.3-1.5-6.9-0.1-13.8 1-21 2.4 0.8 0.4 1.2 0.6 1.7 0.7 5.7 1.3 11.2 3.1 16.3 5.7 10 5.1 20.2 9.4 31.2 12.1 1.3 0.3 2.8 0.3 3.7 1.1 1.2 1-0.1 2.6 0.1 3.9 0 0.3 0.1 0.6 0.1 0.9 0.4 5.8 2.4 11.2 5.3 16.1 4.2 7.3 8.3 14.6 10.9 22.7 0.7 2.3 1.3 4.5 2.1 7.3 12.2-16.2 17.7-34 16.6-54-4.9 2-9.1 4.2-13.5 6.7-0.4-3.7 0.9-6.6 2.9-9.2 3.6-4.7 8.5-7.6 13.9-9.8 6-2.4 12-4.8 17.9-7.5 26.6-12.5 49.2-30.2 67.3-53.4 12.3-15.8 21.3-33.2 26.6-52.5 4.2-15.2 5.7-30.7 4.6-46.4-1.1-17.5-5.6-34.2-12.7-50.2-0.3-0.7-1-1.4-0.6-2.4 0.7 0.3 1 1 1.3 1.6 3.4 5.5 6.4 11.1 8.9 17 0.3 0.6 0.3 2.2 1.7 1 0.8 0.1 0.9 0.2 1.1 0.3z m-124 151.9c-2.2 0.3-3.9 0.7-5.7 0.9-14 1-27.4-1-40-7.4-9.8-5-18.2-11.7-25-20.3-1.4-1.8-1.8-3.7-0.6-5.8 1.1-1.9 2.7-2.6 4.9-2.4 19 1.8 36.5-2.6 52.7-12.6 2.4-1.5 2.4-1.6 0.5-3.8-9.6-11.1-21.4-19.3-34.9-24.9-1.3-0.5-2.3-0.5-3.5 0.2-2.8 1.6-5.8 3-8.5 4.8-26.4 17.4-40.9 41.8-42.9 73.5-0.1 1.7 0.3 2.8 1.7 3.9 14.2 11.3 30.1 18.4 48.2 20.4 12.2 1.3 24.1-0.1 35.1-5.9 8.3-4.6 14.4-11.2 18-20.6zM244.9 410c0-18-14.6-32.5-32.6-32.5-17.8 0-32.5 14.7-32.5 32.4 0 17.8 14.7 32.5 32.4 32.5 18 0 32.7-14.5 32.7-32.4zM161 598.4c0.2-4.2 0.7-7.7 1.3-11.3 2.6-13.5 7.7-25.8 15.5-37.1 0.6-0.9 1.3-1.6-0.4-2.3-10.2-4-20.6-6.5-31.6-6.5-1.2 0-1.8 0.4-2.2 1.5-2.3 6.5-2.7 13.2-1.8 19.9 1.4 10 5.7 18.8 11.6 27 2.3 3 4.6 5.8 7.6 8.8z m51.2-79c-14.6-3.9-28.6-4.8-42.6-0.3-8.5 2.8-15.7 7.5-21.1 14.8-0.3 0.5-1 0.9-0.7 1.6 0.2 0.5 0.8 0.3 1.2 0.3 11 0.7 21.5 3.1 31.6 7.4 1.5 0.6 2.2 0.2 3.1-0.9 2.5-3.1 5.4-6 8.3-8.7 6-5.4 12.5-10 20.2-14.2zM254 488c-5.4 4.7-10.8 8.4-16.6 12.2 7.3 3 14.2 5.9 21.6 8.9-1.7-7.2-3.3-14-5-21.1z m15.9-15.9c-3.6 4.1-7 8-10.8 11.3-1.1 1-1.1 1.5 0 2.5 3.9 3.2 7.8 6.6 11.7 9.8 0.5 0.4 1 1.7 2 1 0.9-0.7 2-1.6 1.7-3-0.1-0.5-0.2-0.9-0.3-1.4-0.4-1.7-0.7-3.5-1.1-5.2-1-4.8-2.1-9.7-3.2-15z m-58.5 40.3c8.7 3 17 3.6 25.5 3.1 1.3-0.1 1.1-0.7 0.6-1.5-1.7-3.2-3.3-6.4-5-9.6-0.4-0.9-0.9-1.1-1.8-0.6-6 3.4-12.2 6.1-19.3 8.6z m69.9-56.1c-2.8 4.4-5.5 8.3-8.4 12.1-0.3 0.4-0.7 0.8-0.1 1.3 3.4 2.9 6.7 5.8 10 8.7 4-7.7 0.2-14.6-1.5-22.1z" fill="#191110" p-id="22660"></path><path d="M510 568.3c-23.8 0-47.5 0-71.3 0.1-1.8 0-1.9-0.6-1.7-2 0.9-5.6 1.7-11.1 2.5-16.7 0.2-1.7 0.4-3.4 0.7-5 0.7-3.2 2.2-4.4 5.4-4.6 1.6-0.1 3.2-0.1 4.9-0.1h151.1c5.9 0 5.9 0 6.7-6.1 2.1-15.3 4.3-30.6 6.5-45.8 2.1-14.7 4.1-29.4 6.2-44 1.4-10 2.9-20 4.4-30 1.5-10.4 2.9-20.8 4.3-31.2 0.7-5.1 4.1-9 10.2-8.8 8.6 0.2 17.2 0.1 25.8 0 1.4 0 2.2 0.1 1.9 2-1.3 8.2-2.3 16.5-3.5 24.7-1.7 12.1-3.3 24.2-5 36.2-1.7 12-3.5 24-5.2 36-1.7 12-3.3 24-5 36-1.3 9.3-2.6 18.5-3.9 27.7-0.5 3.2-0.5 3.2 2.5 3.2 10.4 0 20.9 0.1 31.3 0 1.6 0 1.9 0.4 1.7 1.8-1 6.6-1.8 13.3-3 19.9-0.6 3.7-4.5 6.7-8.4 6.7-8.6 0-17.2 0.1-25.8 0-2.1 0-3 0.9-3.3 2.9-1.8 13.1-3.7 26.3-5.6 39.4-0.2 1.7-0.8 2.3-2.6 2.3-10.9-0.1-21.8-0.1-32.7 0-1.6 0-1.8-0.4-1.6-2 1.1-6.7 2.1-13.4 2.9-20.2 1.4-12-7.9-22.3-20.1-22.4H510z" fill="#FD7A02" p-id="22661"></path><path d="M515.8 444.9h22.3c1.7 0 3-0.5 3.7-2.1 0.7-1.6 0.1-3-1-4.2-10.8-12.2-21.6-24.4-32.5-36.6-2.6-2.9-5.1-5.7-7.6-8.7-1.6-1.9-2.2-4-1.1-6.4 1.1-2.4 3.1-3 5.3-3h37.8c2.8 0 5.1 1.2 6.9 3.2 10.1 11.4 20.3 22.9 30.4 34.3 4 4.5 8 9 11.9 13.5 8.2 9.6 3 23.3-7.3 26.7-2.1 0.7-4.1 0.8-6.1 0.9-13 0-26 0.1-39 0-1.8 0-3.4 0.3-4.7 1.5-2.5 2.2-2.7 4.8-0.5 7.6 2.8 3.5 5.8 6.8 8.8 10.1 8.1 9.2 16.1 18.4 24.2 27.6 1.5 1.7 3 3.3 4.5 4.9 1.8 1.9 2.6 4.1 1.4 6.5-1.1 2.4-3.2 3-5.7 3-12.2-0.1-24.5-0.1-36.7 0-3.5 0-6-1.3-8.2-3.9-9.7-10.9-19.2-22-29.1-32.8-4.2-4.6-8.4-9.4-12.4-14.2-7.7-9.3-4.1-22.6 7.1-26.9 1.9-0.7 4-1.1 6.1-1.1 7.2 0.2 14.3 0.2 21.5 0.1 0 0.1 0 0 0 0z" fill="#FD7A03" p-id="22662"></path><path d="M828 585.1c38.5 0 76.9 0 115.4-0.1 2.5 0 2.9 0.8 2.7 3-0.7 6.9-2.2 13.5-7.4 18.6-4.8 4.6-10.4 7.1-17 7.1H705.3c-2.9 0-2.8 0-2.3-2.8 1-6.6 1.9-13.1 2.9-19.7 0.8-5 2.3-6.2 7.3-6.2 38.2 0.1 76.5 0.1 114.8 0.1z" fill="#FD7C03" p-id="22663"></path><path d="M955.2 674.4v28.3c0 2.9-0.1 3-3 3-2.1 0-4.2-0.1-6.3 0-2.1 0.1-2.7-0.7-2.6-2.7 0.1-11.2 0-22.4 0-33.7v-1.9c-0.1-0.6 0.3-1.5-0.8-1.7-1-0.2-1.3 0.4-1.7 1.2-2.7 6.2-5.5 12.4-8.2 18.6-2.7 6-5.4 11.9-7.9 18-1.2 3-3.5 1.8-5.5 2-1.9 0.2-1.8-1.6-2-2.8-2.1-11.6-4.2-23.2-6.2-34.9-0.1-0.4-0.2-0.7-0.3-1.1-0.1-0.7-0.2-1.5-1.1-1.5-1 0-1.1 0.8-1.3 1.6-2.7 10.8-5.4 21.5-8.3 32.3-2.1 8-0.2 6.3-8 6.5h-3.7c-2.4 0-2.7-0.4-2.1-2.7 2.5-9.6 5-19.2 7.5-28.9 2.4-9.4 4.9-18.8 7.2-28.2 0.5-2 1.3-3 3.6-2.8 3.5 0.2 7.1 0.2 10.7 0 1.9-0.1 2.6 0.7 2.9 2.4 1.7 10 3.4 20.1 5.2 30.1 0.2 0.9 0 2.1 1.1 2.3 1.4 0.3 1.5-1.1 1.9-1.9 4.6-10.2 9.2-20.4 13.7-30.6 0.7-1.6 1.6-2.4 3.5-2.3 3 0.2 6 0.2 9 0 2.2-0.1 2.7 0.7 2.7 2.8-0.1 9.6-0.1 19.1 0 28.6z" fill="#3B3B3B" p-id="22664"></path><path d="M513 706.4c-13.8-0.1-24.1-7.7-26.4-20.3-4.2-22.1 11.7-40.3 29.5-43.1 11.4-1.7 21.4 0.7 28.5 10.6 5.2 7.3 5.7 15.6 3.7 24-3.8 15.6-13.7 25.2-29.5 28.3-2 0.4-3.9 0.3-5.8 0.5z m22.1-35.6c0.4-11.3-8.3-18.1-19.9-15.3-13.6 3.3-18.5 22-13.4 31.1 4.2 7.6 14.4 9.9 22.6 4.8 7.7-4.7 10.4-12.1 10.7-20.6zM846.8 706.3c-14.5 0-24.7-7.3-27.3-19.7-4.5-22.1 11.2-40.7 29.3-43.6 10-1.6 19.2 0.2 26.5 8 5.9 6.3 7.5 13.9 6.5 22.2-1.7 14.7-9.6 25.1-23.3 30.9-4 1.6-8.2 2.3-11.7 2.2z m21.2-35.6c0.1-2.4-0.4-4.8-1.2-7-3.6-9.4-14.7-10.4-21.6-7.1-10.2 4.7-13.4 17-12.2 24.7 1 6 4.1 10.6 10.2 12.3 5.6 1.5 10.9 0.5 15.6-3 6.6-5 8.8-12.1 9.2-19.9zM443.3 643.1c5.9 0.1 11.9-0.4 17.7 1.3 9.8 2.9 16.4 11.2 16.9 21.4 0.7 13.6-3.3 25.1-14.6 33.5-5.9 4.3-12.6 6.2-19.7 6.4-6.3 0.2-12.7 0.1-19 0.1-2 0-2.5-0.7-2.2-2.7 2-14.2 3.9-28.4 5.8-42.6 0.7-5 1.5-10.1 2.1-15.1 0.2-1.9 1.1-2.2 2.7-2.2 3.5-0.1 6.9-0.1 10.3-0.1z m-1.9 50.5c5 0.1 9.9-0.8 14.1-3.7 7.8-5.6 9.4-13.8 8.6-22.6-0.6-6.6-4.4-10.4-10.9-11.7-2.8-0.5-5.5-0.7-8.3-0.8-1.9-0.1-2.5 0.6-2.8 2.5-1.4 10.6-2.8 21.3-4.3 31.9-0.7 4.5-0.8 4.4 3.6 4.4zM689.1 643.1h4.2c1.8-0.1 2.4 0.4 2.1 2.4-1.7 12-3.3 24-4.9 36-0.6 4.4 0.2 8.4 4.6 10.7 4 2.1 10.1 0.9 13.6-2.4 3.4-3.2 4-7.5 4.6-11.8 1.4-10.7 2.9-21.4 4.3-32.1 0.3-2.2 1.2-3 3.4-2.8 2.6 0.2 5.3 0.1 7.9 0 1.6 0 2.3 0.5 2 2.2-1.8 12.9-3.5 25.8-5.5 38.7-2.1 14-14.5 23.6-28.6 22.4-1.6-0.1-3.2-0.2-4.8-0.6-10.3-2.2-16.4-10.8-15-21.3 1.7-13.1 3.5-26.2 5.2-39.2 0.2-1.7 1-2.4 2.7-2.3 1.4 0.2 2.8 0.1 4.2 0.1zM570.8 643.1c1.4 0 2.8 0.1 4.2 0 1.9-0.1 2.6 0.6 2.3 2.4-0.9 6-1.7 12.1-2.5 18.1-0.8 6-1.7 12.1-2.5 18.1-0.6 5.1 1.2 8.9 4.8 10.6 4.3 2 10.5 0.7 13.9-3 2.5-2.7 3.4-6.2 3.9-9.7 1.6-11.5 3.2-23.1 4.7-34.7 0.2-1.5 0.9-1.9 2.3-1.9 2.9 0.1 5.7 0.1 8.6 0 1.9-0.1 2.4 0.7 2.2 2.5-1 7.4-2 14.8-3 22.3-0.8 5.7-1.4 11.5-2.5 17.2-2.8 13.8-14.7 22.6-28.8 21.5-2.6-0.2-5.2-0.5-7.7-1.3-6.6-2.3-11.6-9.2-11.9-16.5-0.2-5.1 0.9-10 1.5-15 1.2-9.6 2.7-19.1 4-28.7 0.2-1.5 0.9-2 2.2-1.9h4.3zM790.5 706.4c-15.6 1.1-27.3-9.9-28.2-25.5-0.9-16.6 11-33.2 27.1-37.5 8.3-2.2 16.2-0.9 23.9 2.4 1.2 0.5 1.4 1.3 1.2 2.4-0.5 3.7-1 7.3-1.5 11-0.3 2-1.4 1.9-2.8 1-3.9-2.3-8-4.2-12.5-4.5-8.7-0.7-15.7 3.5-19.1 11.7-2.2 5.1-3.1 10.4-1.7 15.8 1.4 5.8 6 9.4 11.9 10.1 6.2 0.7 11.7-1.3 17.2-3.8 0.7-0.3 1.4-1.2 2.3-0.6 1.1 0.7 0.4 1.7 0.3 2.5-0.4 3.3-1 6.6-1.3 9.9-0.1 1.3-0.8 1.9-1.9 2.2-5.2 1.3-10.3 2.7-14.9 2.9z" fill="#3A3A3A" p-id="22665"></path><path d="M393.4 447l-0.4-0.4c0.3-0.4 0.5-0.8 0.8-1.1 10-11.4 22.5-18.9 37-23.1 3.6-1 7.3-1.6 11.1-2.5-7.3-10-16.1-17.9-26.5-24-11.3-6.6-23.4-10.4-36.5-11.7-12.1-1.1-24-0.1-35.7 3.3-0.1-0.2-0.2-0.3-0.3-0.5 6.8-4.5 14.3-7.2 22.2-8.7 24.8-4.7 47.4 0.7 67.4 16.2 9.5 7.3 17 16.4 22.5 27.1 2 3.8 0 7.4-4.3 7.4-20.9-0.2-39.8 5.9-56.9 17.9-0.3 0.1-0.4 0.1-0.4 0.1z" fill="#191211" p-id="22666"></path><path d="M629.2 643.1c5.7-1.8 8.1 1.4 9.7 6.2 1.3 3.6 3.1 7.1 4.7 10.6 1 2.1 1.6 2.2 3 0.3 3.6-4.9 7.3-9.8 10.8-14.8 1.2-1.7 2.4-2.5 4.6-2.4 2.9 0.2 5.9 0 8.8 0.1 0.8 0 1.6-0.1 2 0.7 0.3 0.8-0.3 1.3-0.7 1.8-6.8 9.3-13.5 18.7-20.4 27.8-2 2.6-2.4 5.4-2.8 8.4-1 7.2-2 14.4-2.9 21.6-0.2 1.6-0.8 2.3-2.5 2.3-2.9-0.1-5.7-0.1-8.6 0-1.7 0-2.5-0.4-2.2-2.5 1.3-8.4 2.3-16.8 3.5-25.2 0.2-1.3-0.1-2.4-0.6-3.6-4.4-9.5-8.8-19.1-13.1-28.6-1.1-2.4-0.9-2.8 1.8-2.8 1.7 0.1 3.3 0.1 4.9 0.1z" fill="#3A3A3A" p-id="22667"></path><path d="M741.1 706.3c-3.8 0-6.5-2.8-6.5-6.6 0.1-4.6 4-8.4 8.6-8.4 3.8 0 6.5 2.7 6.5 6.6 0 4.6-4 8.4-8.6 8.4z" fill="#3B3B3B" p-id="22668"></path><path d="M343.1 387.6c11.7-3.4 23.6-4.5 35.7-3.3 13 1.2 25.2 5 36.5 11.7 10.4 6.1 19.2 13.9 26.5 24-3.8 0.9-7.5 1.5-11.1 2.5-14.5 4.2-27 11.7-37 23.1-0.3 0.3-0.5 0.7-0.8 1.1-1.5 1.2-1.5-0.4-1.7-1-2.6-5.9-5.6-11.5-8.9-17-0.4-0.6-0.6-1.3-1.3-1.6-0.4 1 0.3 1.6 0.6 2.4 7.1 16 11.5 32.7 12.7 50.2 1 15.7-0.5 31.2-4.6 46.4-5.3 19.3-14.3 36.8-26.6 52.5-18.1 23.2-40.7 40.9-67.3 53.4-5.9 2.8-11.9 5.1-17.9 7.5-5.3 2.2-10.2 5.1-13.9 9.8-2 2.6-3.3 5.5-2.9 9.2 4.3-2.5 8.6-4.7 13.5-6.7 1 20.1-4.5 37.8-16.6 54-0.8-2.8-1.4-5-2.1-7.3-2.6-8-6.7-15.4-10.9-22.7-2.9-5-4.9-10.3-5.3-16.1 0-0.3-0.1-0.6-0.1-0.9-0.2-1.3 1.1-2.9-0.1-3.9-0.9-0.8-2.5-0.7-3.7-1.1-10.9-2.6-21.2-7-31.2-12.1-5.1-2.6-10.7-4.4-16.3-5.7-0.4-0.1-0.8-0.3-1.7-0.7 7.3-1.4 14.1-2.5 21-2.4 3.4 0 6.8 1.1 10.3 1.5 6.2 0.6 12.3 0.4 18.5-0.4 3.5-0.4 6.9 0.9 10.3 1.4 5.1 0.8 5.2 1 6.5-4 0.6-2.1 1.6-3.4 3.5-4.5 11.2-6.5 18.6-15.9 21.2-28.7 0.3-1.4 1.1-1.7 2.2-2 15.2-5.1 27.3-14.3 36.3-27.5 5.3-7.8 8.8-16.4 10.3-25.8 0.1-0.4 0-0.9 0-2.1-9.2 22.9-24.6 38.9-47.9 45.8-23.4 6.9-44.8 2.3-64.6-13.1 11.8-1.5 22.4-4.6 32.1-10.3 9.8-5.7 18.1-13 24.7-22.8-1.7-0.1-2.2 0.9-2.9 1.5-1.8 1.4-3.5 2.9-5.2 4.3-0.7 0.6-1.2 0.8-1.9-0.1-4.2-4.7-8.8-8.9-13.8-12.7-0.2-0.1-0.2-0.4-0.5-0.7 6.3-2.6 12.2-5.6 17.6-9.6 17.8-13.2 28.4-30.7 31.5-52.6 1.8-12.5 0.4-24.8-4-36.7-1.2-3.3-2.7-4.5-5.3-4.6-3-0.1-4.6 1.7-5.7 4.3-11.4 26.5-29.6 46.8-55 60.7-14.3 7.8-29.6 12.5-45.9 14.2-23.6 2.5-46.1-1.5-67.5-11.7-2-0.9-2.5-1.6-1.4-3.9 13.8-29.4 30.8-56.5 53.3-80.1 2.6-2.8 5.4-5.4 8.7-8.6-1.3 13.8 2.4 25.1 11.9 34.3 6.5 6.3 14.3 10 23.3 10.9 18.9 1.9 35.9-9.2 42-26.7 5.9-17.2-0.7-38.8-20.7-49 48.4-11.6 91.6 0 130.7 29.8 0.1-0.8-0.9-1.2-1.5-1.8-4.5-4.7-9.7-8.6-14.5-13-0.5-0.3-0.8-0.6-1.1-1z m37.3 38.6c-0.2 0.1-0.3 0.2-0.4 0.3l0.6 0.3c0.1 0 0.2-0.2 0.3-0.3-0.2-0.1-0.4-0.2-0.5-0.3z" fill="#F3F3F3" p-id="22669"></path><path d="M269.4 598.9c-3.6 9.4-9.8 16-18.2 20.4-11 5.8-22.9 7.3-35.1 5.9-18.1-2-34-9.1-48.2-20.4-1.4-1.1-1.8-2.2-1.7-3.9 2.1-31.6 16.5-56.1 42.9-73.5 2.7-1.8 5.7-3.1 8.5-4.8 1.2-0.7 2.2-0.7 3.5-0.2 13.6 5.6 25.3 13.8 34.9 24.9 2 2.3 2 2.3-0.5 3.8-16.2 10-33.7 14.4-52.7 12.6-2.2-0.2-3.8 0.5-4.9 2.4-1.2 2.1-0.8 4 0.6 5.8 6.8 8.6 15.2 15.3 25 20.3 12.6 6.4 26.1 8.4 40 7.4 2 0.1 3.8-0.3 5.9-0.7z" fill="#F9C502" p-id="22670"></path><path d="M244.9 410c0 17.9-14.7 32.4-32.7 32.4-17.7 0-32.4-14.7-32.4-32.5 0-17.7 14.7-32.4 32.5-32.4 18 0 32.6 14.5 32.6 32.5z m-44.6 18.7c7.2 5.7 20.2 4.5 27.7-2.4 8-7.3 8.8-19 5.2-24.9-1.8 6.9-6.3 10.5-13.1 10.3-5.6-0.1-10.6-4.4-11.6-9.9-1.1-5.8 2.2-10.6 9.2-13.6-8.9-2.9-20.1 1.7-25.3 10.3-4.5 7.3-3.6 18.1-0.1 21.7 1.4-4.3 4.6-6.5 8.5-5.8 3.9 0.6 6.7 3.7 6.6 7.2 0 3.6-2.7 6.4-7.1 7.1z" fill="#FBFBFB" p-id="22671"></path><path d="M161 598.4c-3.1-3-5.4-5.8-7.5-8.8-5.9-8.1-10.2-16.9-11.6-27-0.9-6.7-0.5-13.4 1.8-19.9 0.4-1.1 1-1.5 2.2-1.5 11 0 21.4 2.5 31.6 6.5 1.8 0.7 1.1 1.4 0.4 2.3-7.8 11.3-12.9 23.7-15.5 37.1-0.7 3.6-1.2 7.1-1.4 11.3zM212.2 519.4c-7.7 4.2-14.2 8.8-20.1 14.3-3 2.7-5.8 5.6-8.3 8.7-0.9 1.1-1.6 1.5-3.1 0.9-10.1-4.3-20.6-6.8-31.6-7.4-0.4 0-1 0.2-1.2-0.3-0.3-0.7 0.4-1.1 0.7-1.6 5.4-7.3 12.6-12 21.1-14.8 13.9-4.6 27.9-3.7 42.5 0.2z" fill="#F9C502" p-id="22672"></path><path d="M254 488c1.7 7.2 3.3 13.9 4.9 21.1-7.4-3.1-14.3-5.9-21.6-8.9 5.9-3.8 11.3-7.6 16.7-12.2zM269.9 472.1c1.1 5.3 2.2 10.2 3.2 15 0.4 1.7 0.7 3.5 1.1 5.2 0.1 0.5 0.2 0.9 0.3 1.4 0.2 1.5-0.8 2.3-1.7 3-1 0.7-1.4-0.5-2-1-3.9-3.2-7.8-6.6-11.7-9.8-1.1-0.9-1.1-1.5 0-2.5 3.8-3.3 7.1-7.1 10.8-11.3zM211.4 512.4c7.1-2.6 13.4-5.3 19.4-8.6 0.9-0.5 1.4-0.3 1.8 0.6 1.6 3.2 3.3 6.4 5 9.6 0.4 0.8 0.7 1.4-0.6 1.5-8.6 0.6-16.9 0-25.6-3.1zM281.3 456.3c1.7 7.6 5.5 14.4 1.5 22.1-3.3-2.9-6.7-5.8-10-8.7-0.6-0.5-0.3-0.9 0.1-1.3 2.9-3.8 5.6-7.7 8.4-12.1z" fill="#FBFBFB" p-id="22673"></path><path d="M380.4 426.2c0.1 0.1 0.3 0.2 0.5 0.4-0.1 0.1-0.2 0.3-0.3 0.3l-0.6-0.3c0.1-0.2 0.2-0.3 0.4-0.4z" fill="#191110" p-id="22674"></path><path d="M200.3 428.7c4.4-0.7 7.1-3.5 7.2-7.1 0.1-3.5-2.7-6.6-6.6-7.2-3.8-0.6-7 1.6-8.5 5.8-3.5-3.5-4.4-14.4 0.1-21.7 5.3-8.5 16.4-13.2 25.3-10.3-7.1 3.1-10.3 7.9-9.2 13.6 1 5.5 6 9.7 11.6 9.9 6.8 0.2 11.3-3.4 13.1-10.3 3.5 5.8 2.8 17.5-5.2 24.9-7.5 6.9-20.6 8.1-27.8 2.4z" fill="#060303" p-id="22675"></path></svg>