<?xml version="1.0" standalone="no"?><!DOCTYPE svg PUBLIC "-//W3C//DTD SVG 1.1//EN" "http://www.w3.org/Graphics/SVG/1.1/DTD/svg11.dtd"><svg t="1696776912798" class="icon" viewBox="0 0 1025 1024" version="1.1" xmlns="http://www.w3.org/2000/svg" p-id="17904" xmlns:xlink="http://www.w3.org/1999/xlink" width="200.1953125" height="200"><path d="M525.621283 932.657277c-147.43036 0-282.040689-6.410016-419.856025-32.050078-67.305164-16.025039-105.765258-60.895149-105.765258-121.790298 0-19.230047 6.410016-28.84507 25.640063-28.84507h44.870109c19.230047 0 28.84507 6.410016 32.050078 22.435055 6.410016 25.640063 28.84507 38.460094 54.485133 41.665101 64.100156 6.410016 128.200313 19.230047 192.30047 19.230047 102.56025 6.410016 201.915493 6.410016 304.475743 0 73.71518-6.410016 144.225352-9.615023 221.14554-22.435054 19.230047-3.205008 35.255086-12.820031 38.460094-32.050079 6.410016-28.84507 25.640063-32.050078 51.280125-32.050078 64.100156 0 67.305164 3.205008 51.280125 64.100157-9.615023 38.460094-32.050078 67.305164-70.510172 76.920187-64.100156 19.230047-128.200313 25.640063-192.300469 32.050079-86.535211 9.615023-163.455399 16.025039-227.555556 12.820031zM528.826291 92.945227c115.380282-6.410016 240.375587 6.410016 368.5759 25.640063 73.71518 12.820031 108.970266 32.050078 124.995305 118.585289 6.410016 22.435055-6.410016 32.050078-28.84507 32.050078-16.025039 0-28.84507-3.205008-44.87011-3.205008-19.230047 0-28.84507-6.410016-35.255086-22.435054-6.410016-22.435055-28.84507-35.255086-51.280125-38.460094-150.635368-19.230047-298.065728-32.050078-448.701096-22.435055-86.535211 6.410016-173.070423 16.025039-259.605633 25.640063-19.230047 0-38.460094 9.615023-44.87011 32.050078-6.410016 25.640063-25.640063 32.050078-48.075117 28.84507h-32.050079c-19.230047 0-28.84507-9.615023-28.84507-32.050078C0 182.685446 32.050078 137.815336 86.535211 128.200313 227.555556 96.150235 371.780908 86.535211 528.826291 92.945227zM413.446009 512.801252v124.995305c0 16.025039-3.205008 28.84507-6.410015 44.87011-6.410016 19.230047-32.050078 35.255086 6.410015 51.280125 9.615023 3.205008 6.410016 22.435055 3.205008 35.255086-3.205008 12.820031-16.025039 16.025039-25.640062 16.025039-28.84507-3.205008-60.895149 3.205008-80.125196-32.050078-6.410016-9.615023-16.025039-9.615023-22.435055-9.615024-9.615023 0-19.230047 0-32.050078-3.205007-92.945227-12.820031-105.765258-28.84507-105.765258-121.790298V374.985915c0-44.87011 16.025039-64.100156 57.690141-76.920187 51.280125-16.025039 102.56025-16.025039 153.840375 3.205008 35.255086 12.820031 51.280125 32.050078 51.280125 76.920187V512.801252z m-105.765258 0v-131.405321c0-19.230047-3.205008-32.050078-25.640062-32.050078-19.230047 0-28.84507 9.615023-28.845071 32.050078v266.01565c0 19.230047 6.410016 35.255086 28.845071 35.255086 25.640063 0 25.640063-19.230047 25.640062-38.460094V512.801252z m435.881064-76.920188c12.820031-41.665102 25.640063-73.71518 32.050079-105.765258 6.410016-25.640063 19.230047-35.255086 44.870109-35.255086 80.125196 0 70.510172 6.410016 48.075118 64.100156-19.230047 54.485133-35.255086 105.765258-57.690141 157.045384-22.435055 51.280125-16.025039 105.765258-19.230047 157.045383 0 19.230047 6.410016 41.665102-16.025039 48.075118-25.640063 9.615023-51.280125 3.205008-76.920188-3.205008-6.410016-3.205008-6.410016-9.615023-6.410016-16.025039v-6.410016c19.230047-131.405321-44.87011-243.580595-83.330203-358.960876-12.820031-38.460094-9.615023-44.87011 32.050078-44.87011h28.84507c22.435055-3.205008 32.050078 6.410016 41.665102 28.84507 6.410016 41.665102 16.025039 73.71518 32.050078 115.380282zM1022.397496 512.801252v176.27543c0 22.435055-6.410016 35.255086-32.050078 35.255086-67.305164 0-67.305164 3.205008-67.305164-67.305164V336.525822c0-32.050078 9.615023-41.665102 41.665101-38.460094 60.895149 0 60.895149 0 60.895149 60.895148l-3.205008 153.840376z m-458.316119 3.205008v182.685446c0 19.230047-6.410016 28.84507-25.640062 28.84507-76.920188 6.410016-76.920188 6.410016-76.920188-70.510172V339.730829c0-41.665102 3.205008-44.87011 44.870109-44.870109h19.230047c32.050078-3.205008 41.665102 9.615023 38.460094 38.460094v182.685446z m-464.726134 57.690141v118.585289c0 22.435055-9.615023 32.050078-32.050079 32.050078-67.305164 3.205008-67.305164 6.410016-67.305164-60.895148V458.316119c0-25.640063 6.410016-35.255086 32.050078-35.255086 73.71518 0 60.895149-6.410016 60.895149 57.690141 6.410016 32.050078 6.410016 64.100156 6.410016 92.945227z m0-224.350548c0 51.280125 0 51.280125-44.87011 51.280125-51.280125 0-51.280125 0-51.280125-51.280125 0-48.075117 0-48.075117 51.280125-48.075117 44.87011-3.205008 44.87011-3.205008 44.87011 48.075117z" fill="#1afa29" p-id="17905"></path></svg>